<?xml version="1.0" encoding="UTF-8" standalone="no"?>
<!-- Generator: Adobe Illustrator 17.1.0, SVG Export Plug-In . SVG Version: 6.00 Build 0)  -->

<svg
   xmlns:dc="http://purl.org/dc/elements/1.1/"
   xmlns:cc="http://creativecommons.org/ns#"
   xmlns:rdf="http://www.w3.org/1999/02/22-rdf-syntax-ns#"
   xmlns:svg="http://www.w3.org/2000/svg"
   xmlns="http://www.w3.org/2000/svg"
   xmlns:sodipodi="http://sodipodi.sourceforge.net/DTD/sodipodi-0.dtd"
   xmlns:inkscape="http://www.inkscape.org/namespaces/inkscape"
   version="1.1"
   id="Calque_1"
   x="0px"
   y="0px"
   viewBox="348 0 256 256"
   enable-background="new 348 0 265 263.4"
   xml:space="preserve"
   inkscape:version="0.48.5 r10040"
   width="100%"
   height="100%"
   sodipodi:docname="anyfetch_icon.svg"><metadata
     id="metadata3024"><rdf:RDF><cc:Work
         rdf:about=""><dc:format>image/svg+xml</dc:format><dc:type
           rdf:resource="http://purl.org/dc/dcmitype/StillImage" /><dc:title /></cc:Work></rdf:RDF></metadata><defs
     id="defs3022"><clipPath
       clipPathUnits="userSpaceOnUse"
       id="clipPath2987"><rect
         ry="15.999999"
         y="2.9133724e-05"
         x="348"
         height="255.99997"
         width="255.99997"
         id="rect2989"
         style="fill:#26aae0;fill-opacity:1;fill-rule:nonzero;stroke:none" /></clipPath></defs><sodipodi:namedview
     pagecolor="#ffffff"
     bordercolor="#666666"
     borderopacity="1"
     objecttolerance="10"
     gridtolerance="10"
     guidetolerance="10"
     inkscape:pageopacity="0"
     inkscape:pageshadow="2"
     inkscape:window-width="1920"
     inkscape:window-height="1031"
     id="namedview3020"
     showgrid="false"
     inkscape:object-paths="false"
     inkscape:snap-nodes="true"
     inkscape:snap-grids="true"
     inkscape:snap-to-guides="true"
     inkscape:snap-global="true"
     showguides="false"
     inkscape:guide-bbox="true"
     inkscape:snap-page="true"
     inkscape:zoom="2"
     inkscape:cx="282.66513"
     inkscape:cy="172.27349"
     inkscape:window-x="0"
     inkscape:window-y="0"
     inkscape:window-maximized="1"
     inkscape:current-layer="Calque_1"
     fit-margin-top="0"
     fit-margin-left="0"
     fit-margin-right="0"
     fit-margin-bottom="0"><inkscape:grid
       type="xygrid"
       id="grid3800"
       empspacing="5"
       visible="true"
       enabled="true"
       snapvisiblegridlinesonly="true"
       originx="2.249504e-14px"
       originy="-8.100002px" /></sodipodi:namedview><g
     id="g2986"><rect
       ry="15.999999"
       y="2.9133724e-05"
       x="348"
       height="255.99997"
       width="255.99997"
       id="rect2983"
       style="fill:#26aae0;fill-opacity:1;fill-rule:nonzero;stroke:none" /><path
       clip-path="url(#clipPath2987)"
       sodipodi:nodetypes="ccccccsccscsscccccssccccsccccccc"
       inkscape:connector-curvature="0"
       id="rect3802"
       d="M 348,243.08035 348,256 l 96.77008,0 c 8.5468,-15.26186 17.19092,-30.50417 25.8393,-45.66428 0.91646,-1.52744 2.22752,-3.284 3.75497,-3.69132 10.89578,-3.15673 16.19093,-11.7868 21.38424,-20.74781 5.39698,-9.36834 10.78759,-18.8576 16.89738,-27.71679 10.18297,-14.76531 8.68098,-29.53699 0.63643,-44.20047 -8.24821,-15.274472 -21.30151,-23.299925 -38.91805,-23.198095 -9.06285,0.10183 -18.0175,0 -27.08035,0 l -29.21241,0 c -1.52744,-16.394589 -1.13922,-16.897373 13.52427,-16.897373 l 136.35639,0 c 3.05489,0 6.20525,-0.210024 9.26014,-0.413683 -2.0366,-2.851233 -4.37232,-3.882259 -6.7144,-4.391408 -44.09228,-9.368336 -88.28639,-18.641207 -132.37867,-27.907714 -25.45743,-5.396976 -55.91725,14.975338 -61.92521,42.673027 5.39698,-5.193317 10.00477,-9.571996 15.9109,-15.274462 l 0,22.498009 c 0,17.922039 6.49164,24.566429 24.31185,24.566429 17.20923,0 34.44391,-0.21002 51.55131,0.0954 14.66348,0.30549 23.29991,10.08751 21.67064,23.83452 -1.52745,12.72872 -12.62689,20.26412 -26.47573,17.31106 -4.786,-1.0183 -9.37471,-3.26492 -15.68815,-5.50517 9.36834,21.28241 1.95386,38.79077 -8.43277,56.10182 -9.47017,15.78366 -17.9284,32.17825 -26.88942,48.36918 l -10.78759,0 c 11.60859,-21.5879 23.51631,-42.87032 34.71758,-64.66189 11.71042,-22.70803 2.64757,-49.57835 -20.36595,-62.81622 -21.58791,-12.42323 -45.21877,-6.6253 -59.98408,14.86078 C 353.49244,146.58394 348,153.40017 348,153.40017 z"
       style="fill:#ffffff;fill-opacity:1;stroke:none" /></g></svg>