<?xml version="1.0" encoding="UTF-8" standalone="no"?>
<!-- Generator: Adobe Illustrator 17.1.0, SVG Export Plug-In . SVG Version: 6.00 Build 0)  -->

<svg
   xmlns:dc="http://purl.org/dc/elements/1.1/"
   xmlns:cc="http://creativecommons.org/ns#"
   xmlns:rdf="http://www.w3.org/1999/02/22-rdf-syntax-ns#"
   xmlns:svg="http://www.w3.org/2000/svg"
   xmlns="http://www.w3.org/2000/svg"
   xmlns:sodipodi="http://sodipodi.sourceforge.net/DTD/sodipodi-0.dtd"
   xmlns:inkscape="http://www.inkscape.org/namespaces/inkscape"
   version="1.1"
   id="Calque_1"
   x="0px"
   y="0px"
   viewBox="348 0 255.99999 256"
   enable-background="new 348 0 265 263.4"
   xml:space="preserve"
   inkscape:version="0.48.5 r10040"
   width="100%"
   height="100%"
   sodipodi:docname="anyfetch_icon.svg"
   inkscape:export-filename="/home/manjaro/git/anyfetch/anyfetch-chrome/res/images/anyfetch_icon.png"
   inkscape:export-xdpi="6.679688"
   inkscape:export-ydpi="6.679688"><defs
     id="defs9" /><sodipodi:namedview
     pagecolor="#ffffff"
     bordercolor="#666666"
     borderopacity="1"
     objecttolerance="10"
     gridtolerance="10"
     guidetolerance="10"
     inkscape:pageopacity="0"
     inkscape:pageshadow="2"
     inkscape:window-width="1920"
     inkscape:window-height="1031"
     id="namedview7"
     showgrid="false"
     fit-margin-top="0"
     fit-margin-left="0"
     fit-margin-right="0"
     fit-margin-bottom="0"
     inkscape:zoom="1.7919514"
     inkscape:cx="194.62795"
     inkscape:cy="70.241892"
     inkscape:window-x="0"
     inkscape:window-y="0"
     inkscape:window-maximized="1"
     inkscape:current-layer="Calque_1" /><g
     id="g2988"
     transform="matrix(1.0043154,0,0,1.0027419,-1.9034884,0)"><path
       id="path3"
       d="m 443,255 c 8.5,-15 16.9,-30 25.4,-44.9 0.8,-1.4 2.2,-3.2 3.7,-3.6 10.7,-3 15.9,-11.5 21,-20.4 5.3,-9.2 10.6,-18.5 16.6,-27.2 10,-14.5 8.5,-29 0.6,-43.4 -8.1,-14.9 -20.9,-22.9 -38.2,-22.8 -8.9,0.1 -17.7,0 -26.6,0 -9.6,0 -19.3,0 -28.7,0 -1.4,-16.2 -1,-16.6 13.3,-16.6 44.6,0 89.3,0 133.9,0 3,0 6.1,-0.3 9.1,-0.4 -2,-2.7 -4.2,-3.8 -6.6,-4.3 -43.3,-9.2 -86.7,-18.3 -130,-27.4 -25,-5.3 -54.8,14.8 -60.8,41.9 5.3,-5.1 9.8,-9.4 15.6,-15 0,8.7 0,15.4 0,22.1 0,17.6 6.4,24.1 23.9,24.1 16.9,0 33.7,-0.2 50.6,0.1 14.5,0.3 22.9,9.9 21.3,23.4 -1.5,12.5 -12.4,19.9 -26,17 -4.8,-1 -9.3,-3.2 -15.4,-5.4 9.2,20.9 2,38.1 -8.3,55.1 -9.3,15.5 -17.7,31.6 -26.4,47.5 h -10.6 c 11.4,-21.1 23.2,-42.1 34.1,-63.5 11.5,-22.4 2.6,-48.7 -20,-61.7 -21.2,-12.2 -44.4,-6.5 -58.9,14.6 -2.3,3.3 -4.6,6.6 -6.9,9.9 V 12.7 c 0,-3.4 1.4,-6.5 3.6,-8.8 -2.4,2.3 -3.9,5.5 -3.9,9.1 v 229.6 c 0,7 5.7,12.7 12.7,12.7 0,0 236,-1.5 238.4,-3.9 -2.3,2.2 -5.4,3.6 -8.8,3.6 l -147.7,0 0,0 z"
       inkscape:connector-curvature="0"
       style="fill:#ffffff" /><path
       id="path5"
       d="M 590.6,0 H 361.4 c -3.6,0 -6.8,1.5 -9.1,3.9 -2.2,2.3 -3.6,5.4 -3.6,8.8 v 141.6 c 2.3,-3.3 4.7,-6.6 6.9,-9.9 14.5,-21.1 37.7,-26.8 58.9,-14.6 22.6,13 31.5,39.4 20,61.7 -11,21.4 -22.7,42.3 -34.1,63.5 H 411 c 8.8,-15.9 17.1,-32 26.4,-47.5 10.2,-17 17.5,-34.2 8.3,-55.1 6.2,2.2 10.7,4.4 15.4,5.4 13.6,2.9 24.5,-4.5 26,-17 1.6,-13.5 -6.9,-23.1 -21.3,-23.4 -16.8,-0.3 -33.7,-0.1 -50.6,-0.1 -17.5,0 -23.9,-6.5 -23.9,-24.1 0,-6.7 0,-13.4 0,-22.1 -5.8,5.6 -10.3,9.9 -15.6,15 5.9,-27.2 35.8,-47.2 60.8,-41.9 43.3,9.1 86.7,18.2 130,27.4 2.3,0.5 4.6,1.5 6.6,4.3 -3,0.2 -6.1,0.4 -9.1,0.4 -44.6,0 -89.3,0 -133.9,0 -14.4,0 -14.8,0.5 -13.3,16.6 9.5,0 19.1,0 28.7,0 8.9,0 17.7,0.1 26.6,0 17.3,-0.1 30.1,7.8 38.2,22.8 7.9,14.4 9.4,28.9 -0.6,43.4 -6,8.7 -11.3,18 -16.6,27.2 -5.1,8.8 -10.3,17.3 -21,20.4 -1.5,0.4 -2.8,2.1 -3.7,3.6 -8.5,14.9 -17,29.9 -25.4,44.9 h 147.6 c 3.4,0 6.5,-1.4 8.8,-3.6 2.4,-2.3 3.9,-5.5 3.9,-9.1 V 12.7 C 603.3,5.7 597.6,0 590.6,0"
       inkscape:connector-curvature="0"
       style="fill:#26aae0" /></g><metadata
     id="metadata2992"><rdf:RDF><cc:Work
         rdf:about=""><dc:title></dc:title></cc:Work></rdf:RDF></metadata></svg>