<?xml version="1.0" encoding="UTF-8" standalone="no"?>
<!-- Generator: Adobe Illustrator 17.1.0, SVG Export Plug-In . SVG Version: 6.00 Build 0)  -->

<svg
   xmlns:dc="http://purl.org/dc/elements/1.1/"
   xmlns:cc="http://creativecommons.org/ns#"
   xmlns:rdf="http://www.w3.org/1999/02/22-rdf-syntax-ns#"
   xmlns:svg="http://www.w3.org/2000/svg"
   xmlns="http://www.w3.org/2000/svg"
   xmlns:sodipodi="http://sodipodi.sourceforge.net/DTD/sodipodi-0.dtd"
   xmlns:inkscape="http://www.inkscape.org/namespaces/inkscape"
   version="1.1"
   id="Calque_1"
   x="0px"
   y="0px"
   viewBox="348 0 251.5 251.39999"
   enable-background="new 348 0 265 263.4"
   xml:space="preserve"
   inkscape:version="0.48.5 r10040"
   width="100%"
   height="100%"
   sodipodi:docname="anyfetch_icon_heron_only.svg"><metadata
     id="metadata3024"><rdf:RDF><cc:Work
         rdf:about=""><dc:format>image/svg+xml</dc:format><dc:type
           rdf:resource="http://purl.org/dc/dcmitype/StillImage" /><dc:title /></cc:Work></rdf:RDF></metadata><defs
     id="defs3022" /><sodipodi:namedview
     pagecolor="#ffffff"
     bordercolor="#666666"
     borderopacity="1"
     objecttolerance="10"
     gridtolerance="10"
     guidetolerance="10"
     inkscape:pageopacity="0"
     inkscape:pageshadow="2"
     inkscape:window-width="1920"
     inkscape:window-height="1031"
     id="namedview3020"
     showgrid="false"
     inkscape:object-paths="false"
     inkscape:snap-nodes="true"
     inkscape:snap-grids="true"
     inkscape:snap-to-guides="true"
     inkscape:snap-global="true"
     showguides="false"
     inkscape:guide-bbox="true"
     inkscape:snap-page="true"
     inkscape:zoom="4.552973"
     inkscape:cx="7.1811624"
     inkscape:cy="-1.5679645"
     inkscape:window-x="0"
     inkscape:window-y="1200"
     inkscape:window-maximized="1"
     inkscape:current-layer="Calque_1"
     fit-margin-top="0"
     fit-margin-left="0"
     fit-margin-right="0"
     fit-margin-bottom="0"><inkscape:grid
       type="xygrid"
       id="grid3800"
       empspacing="5"
       visible="true"
       enabled="true"
       snapvisiblegridlinesonly="true"
       originx="2.249504e-14px"
       originy="-8.1000059px" /></sodipodi:namedview><path
     style="fill:#ffffff;fill-opacity:1;stroke:none"
     d="m 348,238.56875 0,12.6875 95.03125,0 c 8.39323,-14.98762 16.88202,-29.95605 25.375,-44.84375 0.9,-1.5 2.1875,-3.225 3.6875,-3.625 10.7,-3.1 15.9,-11.575 21,-20.375 5.3,-9.2 10.59375,-18.51875 16.59375,-27.21875 10,-14.5 8.525,-29.00625 0.625,-43.40625 -8.1,-15 -20.91875,-22.88125 -38.21875,-22.78125 -8.9,0.1 -17.69375,0 -26.59375,0 l -28.6875,0 c -1.5,-16.1 -1.11875,-16.59375 13.28125,-16.59375 l 133.90625,0 c 3,0 6.09375,-0.20625 9.09375,-0.40625 -2,-2.8 -4.29375,-3.8125 -6.59375,-4.3125 -43.3,-9.2 -86.7,-18.30625 -130,-27.40625 -25,-5.3 -54.9125,14.706251 -60.8125,41.90625 5.3,-5.1 9.825,-9.4 15.625,-15 l 0,22.09375 c 0,17.6 6.375,24.125 23.875,24.125 16.9,0 33.825,-0.20625 50.625,0.0937 14.4,0.3 22.88125,9.90625 21.28125,23.40625 -1.5,12.5 -12.4,19.9 -26,17 -4.7,-1 -9.20625,-3.20625 -15.40625,-5.40625 9.2,20.9 1.91875,38.09375 -8.28125,55.09375 C 428.10625,219.1 419.8,235.2 411,251.1 l -10.59375,0 C 411.80625,229.9 423.5,209 434.5,187.6 c 11.5,-22.3 2.6,-48.6875 -20,-61.6875 -21.2,-12.2 -44.40625,-6.50625 -58.90625,14.59375 C 353.39375,143.80625 348,150.5 348,150.5 z"
     id="rect3802"
     inkscape:connector-curvature="0"
     sodipodi:nodetypes="ccccccsccscsscccccssccccsccccccc" /></svg>